<svg height="2000" viewBox="0 0 2000 2000" width="2000" xmlns="http://www.w3.org/2000/svg"><g fill="none" fill-rule="evenodd"><rect fill="#fff" height="2000" rx="1000" width="2000"/><g transform="translate(341.176 341.176)"><path d="m1135.52941 836.347059-122.94117 122.941176c-151.858828 151.847055-391.776475 189.964705-572.541181 74.011765-253.847059-162.811765-280.458824-505.941176-79.835294-706.552941l132.858823-132.858824c44.341177-44.352941 44.341177-116.2705879 0-160.6235291-44.364706-44.3529412-116.270588-44.3529412-160.623529 0l-132.858824 132.8588231c-266.1176468 266.117647-266.1176468 697.576471 0 963.694121 266.117647 266.11764 697.576471 266.11764 963.694115 0l132.85883-132.858826c44.35294-44.352942 44.35294-116.258824 0-160.611765s-116.25883-44.352941-160.61177 0" fill="#00170a"/><path d="m786.529412 577.983529-65.647059 196.976471c-7.494118 22.458824-39.247059 22.458824-46.741177 0l-25.035294-75.129412c-2.458823-7.352941-8.223529-13.117647-15.57647-15.564706l-75.129412-25.047058c-22.447059-7.482353-22.447059-39.247059 0-46.729412l196.988235-65.658824c19.247059-6.411764 37.576471 11.894118 31.141177 31.152941m88.635294-231.882353h-194.717647c-167.258824 0-302.858824 135.588236-302.858824 302.858824 0 167.258824 135.6 302.858824 302.858824 302.858824 167.258823 0 302.858823-135.6 302.858823-302.858824v-194.729412c0-59.717647-48.411764-108.129412-108.141176-108.129412" fill="#ee5622"/></g></g></svg>